<svg xmlns="http://www.w3.org/2000/svg"
    xmlns:xlink="http://www.w3.org/1999/xlink" width="718" zoomAndPan="magnify" viewBox="0 0 538.5 201.75" height="269" preserveAspectRatio="xMidYMid meet" version="1.0">
    <defs>
        <clipPath id="48947f8d98">
            <path d="M 0.0820312 0 L 537.917969 0 L 537.917969 201.5 L 0.0820312 201.5 Z M 0.0820312 0 " clip-rule="nonzero"/>
        </clipPath>
        <clipPath id="a9602d5df6">
            <path d="M 0.0820312 0 L 537.917969 0 L 537.917969 201.5 L 0.0820312 201.5 Z M 0.0820312 0 " clip-rule="nonzero"/>
        </clipPath>
        <clipPath id="a23476ab55">
            <path d="M 10 33.847656 L 528 33.847656 L 528 45.832031 L 10 45.832031 Z M 10 33.847656 " clip-rule="nonzero"/>
        </clipPath>
    </defs>
    <g clip-path="url(#48947f8d98)">
        <path fill="#5e606c" d="M 256.914062 6.394531 C 281.085938 6.148438 305.261719 5.9375 329.433594 5.652344 C 354.785156 5.355469 380.140625 5.21875 405.484375 4.578125 C 429.578125 3.96875 453.664062 4.339844 477.75 4.5 C 485.246094 4.550781 492.746094 4.496094 500.230469 4.800781 C 508.902344 5.15625 517.542969 5.960938 525.96875 8.230469 C 531.914062 9.828125 532.535156 10.195312 533.058594 16.347656 C 533.617188 22.882812 533.929688 29.476562 533.71875 36.027344 C 532.894531 61.886719 532.972656 87.738281 533.230469 113.605469 C 533.421875 132.808594 533.09375 152.019531 532.78125 171.222656 C 532.703125 176.253906 532.160156 181.328125 531.246094 186.277344 C 530.140625 192.261719 529.179688 194.28125 521.519531 195.722656 C 517.984375 196.386719 514.316406 196.597656 510.710938 196.570312 C 490.75 196.421875 470.789062 196.222656 450.832031 195.871094 C 433.734375 195.566406 416.644531 194.925781 399.546875 194.640625 C 380.347656 194.320312 361.140625 194.175781 341.9375 194.046875 C 321.554688 193.910156 301.167969 193.777344 280.785156 193.835938 C 262.421875 193.890625 244.0625 194.273438 225.699219 194.382812 C 212.898438 194.460938 200.089844 194.148438 187.289062 194.328125 C 171.542969 194.554688 155.800781 195.152344 140.054688 195.507812 C 131.210938 195.710938 122.367188 195.707031 113.523438 195.878906 C 92.046875 196.304688 70.578125 196.828125 49.101562 197.210938 C 37.101562 197.425781 25.226562 196.128906 13.457031 193.800781 C 12.964844 193.703125 12.476562 193.5625 11.984375 193.460938 C 8.433594 192.707031 6.359375 190.441406 5.78125 186.960938 C 5.257812 183.8125 4.847656 180.617188 4.75 177.433594 C 4.453125 167.917969 4.222656 158.398438 4.167969 148.882812 C 3.992188 117.796875 3.84375 86.710938 3.808594 55.625 C 3.796875 44 4.105469 32.375 4.3125 20.753906 C 4.351562 18.652344 4.539062 16.542969 4.800781 14.457031 C 5.292969 10.476562 6.796875 8.976562 10.851562 8.78125 C 16.570312 8.507812 22.296875 8.421875 28.019531 8.289062 C 48.3125 7.820312 68.605469 7.363281 88.898438 6.902344 C 99.171875 6.671875 109.445312 6.367188 119.71875 6.226562 C 148.1875 5.832031 176.652344 5.367188 205.121094 5.21875 C 219.015625 5.148438 232.910156 5.726562 246.804688 5.984375 C 250.171875 6.046875 253.542969 5.992188 256.910156 5.992188 C 256.910156 6.125 256.914062 6.257812 256.914062 6.394531 Z M 12.6875 21.78125 C 12.695312 25.355469 15.390625 28.328125 18.640625 28.34375 C 21.519531 28.355469 24.40625 25.1875 24.339844 22.082031 C 24.273438 18.9375 21.277344 15.898438 18.207031 15.863281 C 15.152344 15.828125 12.683594 18.472656 12.6875 21.78125 Z M 50.410156 14.722656 C 47.027344 14.707031 44.328125 17.539062 44.320312 21.105469 C 44.316406 25.242188 46.476562 27.617188 50.292969 27.671875 C 53.804688 27.722656 56.628906 24.886719 56.675781 21.261719 C 56.71875 17.675781 53.90625 14.742188 50.410156 14.722656 Z M 34.710938 27.546875 C 37.835938 27.585938 40.566406 24.765625 40.539062 21.535156 C 40.507812 18.070312 37.914062 15.09375 34.820312 14.972656 C 31.738281 14.855469 28.785156 17.886719 28.898438 21.226562 C 29.003906 24.335938 30.867188 27.503906 34.710938 27.546875 Z M 53.597656 21.292969 C 53.613281 19.574219 52.066406 18.003906 50.386719 18.042969 C 48.839844 18.074219 47.46875 19.734375 47.460938 21.578125 C 47.449219 23.480469 48.527344 24.554688 50.441406 24.546875 C 52.207031 24.539062 53.578125 23.125 53.597656 21.292969 Z M 34.730469 24.5625 C 36.167969 24.59375 37.503906 23.144531 37.480469 21.574219 C 37.453125 19.863281 36.109375 18.226562 34.722656 18.214844 C 33.371094 18.207031 32.019531 19.714844 31.980469 21.28125 C 31.933594 23.050781 33.171875 24.53125 34.730469 24.5625 Z M 258.09375 2.375 C 281.761719 2.105469 305.425781 1.835938 329.09375 1.578125 C 349.140625 1.355469 369.195312 1.476562 389.230469 0.859375 C 416.097656 0.0273438 442.957031 -0.00390625 469.828125 0.253906 C 479.511719 0.351562 489.203125 0.339844 498.878906 0.644531 C 508.0625 0.933594 517.195312 1.882812 526.132812 4.191406 C 527.59375 4.570312 529.035156 5.0625 530.453125 5.582031 C 533.578125 6.71875 535.492188 8.925781 535.882812 12.253906 C 536.410156 16.765625 537.152344 21.285156 537.207031 25.8125 C 537.289062 32.707031 536.824219 39.613281 536.652344 46.515625 C 536.460938 54.09375 536.203125 61.671875 536.203125 69.253906 C 536.191406 96.464844 536.351562 123.671875 536.277344 150.882812 C 536.253906 159.890625 535.886719 168.90625 535.355469 177.898438 C 535.125 181.816406 534.246094 185.722656 533.371094 189.566406 C 532.417969 193.765625 529.613281 196.324219 525.515625 197.699219 C 520.714844 199.308594 515.75 199.566406 510.796875 199.644531 C 489.824219 199.96875 468.851562 199.683594 447.886719 199.015625 C 437.363281 198.675781 426.835938 198.492188 416.3125 198.1875 C 375.722656 197 335.121094 197.179688 294.523438 197.03125 C 277.679688 196.96875 260.835938 197.601562 243.988281 197.71875 C 225.628906 197.847656 207.261719 197.578125 188.902344 197.800781 C 173.324219 197.992188 157.753906 198.6875 142.175781 199.0625 C 127.019531 199.425781 111.859375 199.632812 96.703125 199.964844 C 81.375 200.304688 66.054688 200.75 50.726562 201.082031 C 37.96875 201.355469 25.324219 200.226562 12.800781 197.773438 C 11.972656 197.613281 11.152344 197.414062 10.34375 197.191406 C 6.738281 196.199219 4.167969 193.945312 3.1875 190.363281 C 2.394531 187.460938 1.851562 184.433594 1.695312 181.433594 C 1.316406 174.285156 1.113281 167.125 1.042969 159.96875 C 0.773438 132.503906 0.421875 105.042969 0.414062 77.582031 C 0.40625 58.882812 0.882812 40.183594 1.230469 21.484375 C 1.28125 18.804688 1.636719 16.101562 2.191406 13.476562 C 2.546875 11.796875 3.441406 10.203125 4.246094 8.648438 C 4.972656 7.234375 6.214844 6.3125 7.816406 6.089844 C 10.3125 5.746094 12.816406 5.300781 15.328125 5.242188 C 26.019531 4.992188 36.71875 4.957031 47.410156 4.675781 C 61.046875 4.320312 74.683594 3.773438 88.320312 3.367188 C 98.339844 3.070312 108.359375 2.800781 118.378906 2.628906 C 147.601562 2.132812 176.824219 1.523438 206.046875 1.296875 C 221.035156 1.183594 236.027344 1.800781 251.015625 2.074219 C 253.375 2.117188 255.730469 2.078125 258.089844 2.078125 C 258.089844 2.179688 258.09375 2.277344 258.09375 2.375 Z M 256.914062 6.394531 C 256.914062 6.257812 256.910156 6.125 256.910156 5.992188 C 253.542969 5.992188 250.171875 6.046875 246.804688 5.984375 C 232.910156 5.726562 219.015625 5.148438 205.121094 5.21875 C 176.652344 5.367188 148.1875 5.832031 119.71875 6.226562 C 109.445312 6.367188 99.171875 6.671875 88.898438 6.902344 C 68.605469 7.363281 48.3125 7.820312 28.019531 8.289062 C 22.296875 8.421875 16.570312 8.507812 10.851562 8.78125 C 6.796875 8.976562 5.292969 10.476562 4.800781 14.457031 C 4.539062 16.542969 4.351562 18.652344 4.3125 20.753906 C 4.105469 32.375 3.796875 44 3.808594 55.625 C 3.84375 86.710938 3.992188 117.796875 4.167969 148.882812 C 4.222656 158.398438 4.453125 167.917969 4.75 177.433594 C 4.847656 180.617188 5.257812 183.8125 5.78125 186.960938 C 6.359375 190.441406 8.433594 192.707031 11.984375 193.460938 C 12.476562 193.5625 12.964844 193.703125 13.457031 193.800781 C 25.226562 196.128906 37.101562 197.425781 49.101562 197.210938 C 70.578125 196.828125 92.046875 196.304688 113.523438 195.878906 C 122.367188 195.707031 131.210938 195.710938 140.054688 195.507812 C 155.800781 195.152344 171.542969 194.554688 187.289062 194.328125 C 200.089844 194.148438 212.898438 194.460938 225.699219 194.382812 C 244.0625 194.273438 262.421875 193.890625 280.785156 193.835938 C 301.167969 193.777344 321.554688 193.910156 341.9375 194.046875 C 361.140625 194.175781 380.347656 194.320312 399.546875 194.640625 C 416.644531 194.925781 433.734375 195.566406 450.832031 195.871094 C 470.789062 196.222656 490.75 196.421875 510.710938 196.570312 C 514.316406 196.597656 517.984375 196.386719 521.519531 195.722656 C 529.179688 194.28125 530.140625 192.261719 531.246094 186.277344 C 532.160156 181.328125 532.703125 176.253906 532.78125 171.222656 C 533.09375 152.019531 533.421875 132.808594 533.230469 113.605469 C 532.972656 87.738281 532.894531 61.886719 533.71875 36.027344 C 533.929688 29.476562 533.617188 22.882812 533.058594 16.347656 C 532.535156 10.195312 531.914062 9.828125 525.96875 8.230469 C 517.542969 5.960938 508.902344 5.15625 500.230469 4.800781 C 492.746094 4.496094 485.246094 4.550781 477.75 4.5 C 453.664062 4.339844 429.578125 3.96875 405.484375 4.578125 C 380.140625 5.21875 354.785156 5.355469 329.433594 5.652344 C 305.261719 5.9375 281.085938 6.148438 256.914062 6.394531 Z M 18.640625 28.34375 C 21.519531 28.355469 24.40625 25.1875 24.339844 22.082031 C 24.273438 18.9375 21.277344 15.898438 18.207031 15.863281 C 15.152344 15.828125 12.683594 18.472656 12.6875 21.78125 C 12.695312 25.355469 15.390625 28.328125 18.640625 28.34375 Z M 50.410156 14.722656 C 53.90625 14.742188 56.71875 17.675781 56.675781 21.261719 C 56.628906 24.886719 53.804688 27.722656 50.292969 27.671875 C 46.476562 27.617188 44.316406 25.242188 44.320312 21.105469 C 44.328125 17.539062 47.027344 14.707031 50.410156 14.722656 Z M 50.441406 24.546875 C 52.207031 24.539062 53.578125 23.125 53.597656 21.292969 C 53.613281 19.574219 52.066406 18.003906 50.386719 18.042969 C 48.839844 18.074219 47.46875 19.734375 47.460938 21.578125 C 47.449219 23.480469 48.527344 24.554688 50.441406 24.546875 Z M 34.710938 27.546875 C 30.867188 27.503906 29.003906 24.335938 28.898438 21.226562 C 28.785156 17.886719 31.738281 14.855469 34.820312 14.972656 C 37.914062 15.09375 40.507812 18.070312 40.539062 21.535156 C 40.566406 24.765625 37.835938 27.585938 34.710938 27.546875 Z M 31.980469 21.28125 C 31.933594 23.050781 33.171875 24.53125 34.730469 24.5625 C 36.167969 24.59375 37.503906 23.144531 37.480469 21.574219 C 37.453125 19.863281 36.109375 18.226562 34.722656 18.214844 C 33.371094 18.207031 32.019531 19.714844 31.980469 21.28125 Z M 31.980469 21.28125 " fill-opacity="1" fill-rule="nonzero"/>
    </g>
    <path fill="#fcf1ef" d="M 256.914062 6.394531 C 281.085938 6.148438 305.261719 5.9375 329.433594 5.652344 C 354.785156 5.355469 380.140625 5.21875 405.484375 4.578125 C 429.578125 3.96875 453.664062 4.339844 477.75 4.5 C 485.246094 4.550781 492.746094 4.496094 500.230469 4.800781 C 508.902344 5.15625 517.542969 5.960938 525.96875 8.230469 C 531.914062 9.828125 532.535156 10.195312 533.058594 16.347656 C 533.617188 22.882812 533.929688 29.476562 533.71875 36.027344 C 532.894531 61.886719 532.972656 87.738281 533.230469 113.605469 C 533.421875 132.808594 533.09375 152.019531 532.78125 171.222656 C 532.703125 176.253906 532.160156 181.328125 531.246094 186.277344 C 530.140625 192.261719 529.179688 194.28125 521.519531 195.722656 C 517.984375 196.386719 514.316406 196.597656 510.710938 196.570312 C 490.75 196.421875 470.789062 196.222656 450.832031 195.871094 C 433.734375 195.566406 416.644531 194.925781 399.546875 194.640625 C 380.347656 194.320312 361.140625 194.175781 341.9375 194.046875 C 321.554688 193.910156 301.167969 193.777344 280.785156 193.835938 C 262.421875 193.890625 244.0625 194.273438 225.699219 194.382812 C 212.898438 194.460938 200.089844 194.148438 187.289062 194.328125 C 171.542969 194.554688 155.800781 195.152344 140.054688 195.507812 C 131.210938 195.710938 122.367188 195.707031 113.523438 195.878906 C 92.046875 196.304688 70.578125 196.828125 49.101562 197.210938 C 37.101562 197.425781 25.226562 196.128906 13.457031 193.800781 C 12.964844 193.703125 12.476562 193.5625 11.984375 193.460938 C 8.433594 192.707031 6.359375 190.441406 5.78125 186.960938 C 5.257812 183.8125 4.847656 180.617188 4.75 177.433594 C 4.453125 167.917969 4.222656 158.398438 4.167969 148.882812 C 3.992188 117.796875 3.84375 86.710938 3.808594 55.625 C 3.796875 44 4.105469 32.375 4.3125 20.753906 C 4.351562 18.652344 4.539062 16.542969 4.800781 14.457031 C 5.292969 10.476562 6.796875 8.976562 10.851562 8.78125 C 16.570312 8.507812 22.296875 8.421875 28.019531 8.289062 C 48.3125 7.820312 68.605469 7.363281 88.898438 6.902344 C 99.171875 6.671875 109.445312 6.367188 119.71875 6.226562 C 148.1875 5.832031 176.652344 5.367188 205.121094 5.21875 C 219.015625 5.148438 232.910156 5.726562 246.804688 5.984375 C 250.171875 6.046875 253.542969 5.992188 256.910156 5.992188 C 256.910156 6.125 256.914062 6.257812 256.914062 6.394531 Z M 12.6875 21.78125 C 12.695312 25.355469 15.390625 28.328125 18.640625 28.34375 C 21.519531 28.355469 24.40625 25.1875 24.339844 22.082031 C 24.273438 18.9375 21.277344 15.898438 18.207031 15.863281 C 15.152344 15.828125 12.683594 18.472656 12.6875 21.78125 Z M 50.410156 14.722656 C 47.027344 14.707031 44.328125 17.539062 44.320312 21.105469 C 44.316406 25.242188 46.476562 27.617188 50.292969 27.671875 C 53.804688 27.722656 56.628906 24.886719 56.675781 21.261719 C 56.71875 17.675781 53.90625 14.742188 50.410156 14.722656 Z M 34.710938 27.546875 C 37.835938 27.585938 40.566406 24.765625 40.539062 21.535156 C 40.507812 18.070312 37.914062 15.09375 34.820312 14.972656 C 31.738281 14.855469 28.785156 17.886719 28.898438 21.226562 C 29.003906 24.335938 30.867188 27.503906 34.710938 27.546875 Z M 53.597656 21.292969 C 53.613281 19.574219 52.066406 18.003906 50.386719 18.042969 C 48.839844 18.074219 47.46875 19.734375 47.460938 21.578125 C 47.449219 23.480469 48.527344 24.554688 50.441406 24.546875 C 52.207031 24.539062 53.578125 23.125 53.597656 21.292969 Z M 34.730469 24.5625 C 36.167969 24.59375 37.503906 23.144531 37.480469 21.574219 C 37.453125 19.863281 36.109375 18.226562 34.722656 18.214844 C 33.371094 18.207031 32.019531 19.714844 31.980469 21.28125 C 31.933594 23.050781 33.171875 24.53125 34.730469 24.5625 Z M 34.730469 24.5625 " fill-opacity="1" fill-rule="nonzero"/>
    <g clip-path="url(#a9602d5df6)">
        <path fill="#5e606c" d="M 258.09375 2.375 C 281.761719 2.105469 305.425781 1.835938 329.09375 1.578125 C 349.140625 1.355469 369.195312 1.476562 389.230469 0.859375 C 416.097656 0.0273438 442.957031 -0.00390625 469.828125 0.253906 C 479.511719 0.351562 489.203125 0.339844 498.878906 0.644531 C 508.0625 0.933594 517.195312 1.882812 526.132812 4.191406 C 527.59375 4.570312 529.035156 5.0625 530.453125 5.582031 C 533.578125 6.71875 535.492188 8.925781 535.882812 12.253906 C 536.410156 16.765625 537.152344 21.285156 537.207031 25.8125 C 537.289062 32.707031 536.824219 39.613281 536.652344 46.515625 C 536.460938 54.09375 536.203125 61.671875 536.203125 69.253906 C 536.191406 96.464844 536.351562 123.671875 536.277344 150.882812 C 536.253906 159.890625 535.886719 168.90625 535.355469 177.898438 C 535.125 181.816406 534.246094 185.722656 533.371094 189.566406 C 532.417969 193.765625 529.613281 196.324219 525.515625 197.699219 C 520.714844 199.308594 515.75 199.566406 510.796875 199.644531 C 489.824219 199.96875 468.851562 199.683594 447.886719 199.015625 C 437.363281 198.675781 426.835938 198.492188 416.3125 198.1875 C 375.722656 197 335.121094 197.179688 294.523438 197.03125 C 277.679688 196.96875 260.835938 197.601562 243.988281 197.71875 C 225.628906 197.847656 207.261719 197.578125 188.902344 197.800781 C 173.324219 197.992188 157.753906 198.6875 142.175781 199.0625 C 127.019531 199.425781 111.859375 199.632812 96.703125 199.964844 C 81.375 200.304688 66.054688 200.75 50.726562 201.082031 C 37.96875 201.355469 25.324219 200.226562 12.800781 197.773438 C 11.972656 197.613281 11.152344 197.414062 10.34375 197.191406 C 6.738281 196.199219 4.167969 193.945312 3.1875 190.363281 C 2.394531 187.460938 1.851562 184.433594 1.695312 181.433594 C 1.316406 174.285156 1.113281 167.125 1.042969 159.96875 C 0.773438 132.503906 0.421875 105.042969 0.414062 77.582031 C 0.40625 58.882812 0.882812 40.183594 1.230469 21.484375 C 1.28125 18.804688 1.636719 16.101562 2.191406 13.476562 C 2.546875 11.796875 3.441406 10.203125 4.246094 8.648438 C 4.972656 7.234375 6.214844 6.3125 7.816406 6.089844 C 10.3125 5.746094 12.816406 5.300781 15.328125 5.242188 C 26.019531 4.992188 36.71875 4.957031 47.410156 4.675781 C 61.046875 4.320312 74.683594 3.773438 88.320312 3.367188 C 98.339844 3.070312 108.359375 2.800781 118.378906 2.628906 C 147.601562 2.132812 176.824219 1.523438 206.046875 1.296875 C 221.035156 1.183594 236.027344 1.800781 251.015625 2.074219 C 253.375 2.117188 255.730469 2.078125 258.089844 2.078125 C 258.089844 2.179688 258.09375 2.277344 258.09375 2.375 Z M 256.914062 6.394531 C 256.914062 6.257812 256.910156 6.125 256.910156 5.992188 C 253.542969 5.992188 250.171875 6.046875 246.804688 5.984375 C 232.910156 5.726562 219.015625 5.148438 205.121094 5.21875 C 176.652344 5.367188 148.1875 5.832031 119.71875 6.226562 C 109.445312 6.367188 99.171875 6.671875 88.898438 6.902344 C 68.605469 7.363281 48.3125 7.820312 28.019531 8.289062 C 22.296875 8.421875 16.570312 8.507812 10.851562 8.78125 C 6.796875 8.976562 5.292969 10.476562 4.800781 14.457031 C 4.539062 16.542969 4.351562 18.652344 4.3125 20.753906 C 4.105469 32.375 3.796875 44 3.808594 55.625 C 3.84375 86.710938 3.992188 117.796875 4.167969 148.882812 C 4.222656 158.398438 4.453125 167.917969 4.75 177.433594 C 4.847656 180.617188 5.257812 183.8125 5.78125 186.960938 C 6.359375 190.441406 8.433594 192.707031 11.984375 193.460938 C 12.476562 193.5625 12.964844 193.703125 13.457031 193.800781 C 25.226562 196.128906 37.101562 197.425781 49.101562 197.210938 C 70.578125 196.828125 92.046875 196.304688 113.523438 195.878906 C 122.367188 195.707031 131.210938 195.710938 140.054688 195.507812 C 155.800781 195.152344 171.542969 194.554688 187.289062 194.328125 C 200.089844 194.148438 212.898438 194.460938 225.699219 194.382812 C 244.0625 194.273438 262.421875 193.890625 280.785156 193.835938 C 301.167969 193.777344 321.554688 193.910156 341.9375 194.046875 C 361.140625 194.175781 380.347656 194.320312 399.546875 194.640625 C 416.644531 194.925781 433.734375 195.566406 450.832031 195.871094 C 470.789062 196.222656 490.75 196.421875 510.710938 196.570312 C 514.316406 196.597656 517.984375 196.386719 521.519531 195.722656 C 529.179688 194.28125 530.140625 192.261719 531.246094 186.277344 C 532.160156 181.328125 532.703125 176.253906 532.78125 171.222656 C 533.09375 152.019531 533.421875 132.808594 533.230469 113.605469 C 532.972656 87.738281 532.894531 61.886719 533.71875 36.027344 C 533.929688 29.476562 533.617188 22.882812 533.058594 16.347656 C 532.535156 10.195312 531.914062 9.828125 525.96875 8.230469 C 517.542969 5.960938 508.902344 5.15625 500.230469 4.800781 C 492.746094 4.496094 485.246094 4.550781 477.75 4.5 C 453.664062 4.339844 429.578125 3.96875 405.484375 4.578125 C 380.140625 5.21875 354.785156 5.355469 329.433594 5.652344 C 305.261719 5.9375 281.085938 6.148438 256.914062 6.394531 Z M 18.640625 28.34375 C 21.519531 28.355469 24.40625 25.1875 24.339844 22.082031 C 24.273438 18.9375 21.277344 15.898438 18.207031 15.863281 C 15.152344 15.828125 12.683594 18.472656 12.6875 21.78125 C 12.695312 25.355469 15.390625 28.328125 18.640625 28.34375 Z M 50.410156 14.722656 C 53.90625 14.742188 56.71875 17.675781 56.675781 21.261719 C 56.628906 24.886719 53.804688 27.722656 50.292969 27.671875 C 46.476562 27.617188 44.316406 25.242188 44.320312 21.105469 C 44.328125 17.539062 47.027344 14.707031 50.410156 14.722656 Z M 50.441406 24.546875 C 52.207031 24.539062 53.578125 23.125 53.597656 21.292969 C 53.613281 19.574219 52.066406 18.003906 50.386719 18.042969 C 48.839844 18.074219 47.46875 19.734375 47.460938 21.578125 C 47.449219 23.480469 48.527344 24.554688 50.441406 24.546875 Z M 34.710938 27.546875 C 30.867188 27.503906 29.003906 24.335938 28.898438 21.226562 C 28.785156 17.886719 31.738281 14.855469 34.820312 14.972656 C 37.914062 15.09375 40.507812 18.070312 40.539062 21.535156 C 40.566406 24.765625 37.835938 27.585938 34.710938 27.546875 Z M 31.980469 21.28125 C 31.933594 23.050781 33.171875 24.53125 34.730469 24.5625 C 36.167969 24.59375 37.503906 23.144531 37.480469 21.574219 C 37.453125 19.863281 36.109375 18.226562 34.722656 18.214844 C 33.371094 18.207031 32.019531 19.714844 31.980469 21.28125 Z M 31.980469 21.28125 " fill-opacity="1" fill-rule="nonzero"/>
    </g>
    <g clip-path="url(#a23476ab55)">
        <path fill="#5e606c" d="M 268.921875 42.820312 C 252.050781 43.023438 235.1875 43.09375 218.3125 43.472656 C 204.210938 43.792969 190.117188 44.609375 176.011719 44.953125 C 160.824219 45.324219 145.640625 45.574219 130.457031 45.550781 C 107.976562 45.519531 85.5 45.277344 63.03125 44.953125 C 52.246094 44.804688 41.449219 44.390625 30.675781 43.828125 C 25.277344 43.554688 19.925781 42.679688 14.546875 42.070312 C 13.527344 41.957031 12.503906 41.875 11.503906 41.648438 C 11.046875 41.542969 10.65625 41.117188 10.230469 40.832031 C 10.667969 40.542969 11.089844 40.027344 11.539062 40.003906 C 13.960938 39.902344 16.386719 39.902344 18.820312 39.914062 C 30.03125 40.003906 41.242188 40.128906 52.453125 40.210938 C 55.117188 40.234375 57.78125 40.152344 60.449219 40.097656 C 68.902344 39.933594 77.355469 39.738281 85.820312 39.625 C 90.253906 39.566406 94.699219 39.683594 99.132812 39.671875 C 117.453125 39.671875 135.773438 39.671875 154.09375 39.601562 C 160.078125 39.578125 166.050781 39.429688 172.035156 39.222656 C 183.1875 38.832031 194.355469 38.351562 205.507812 37.9375 C 209.617188 37.789062 213.730469 37.660156 217.84375 37.605469 C 246.8125 37.203125 275.78125 36.777344 304.746094 36.433594 C 325.308594 36.191406 345.867188 35.996094 366.429688 35.9375 C 376.753906 35.914062 387.082031 36.398438 397.40625 36.375 C 408.148438 36.351562 418.933594 36.453125 429.636719 35.707031 C 453.023438 34.101562 476.46875 33.894531 499.921875 33.972656 C 506.03125 33.996094 512.144531 34.492188 518.265625 34.664062 C 520.527344 34.71875 522.8125 34.386719 525.089844 34.363281 C 525.753906 34.363281 526.628906 34.605469 527.019531 35.066406 C 527.363281 35.46875 527.429688 36.511719 527.132812 36.949219 C 526.800781 37.441406 525.960938 37.71875 525.296875 37.832031 C 523.332031 38.167969 521.355469 38.429688 519.378906 38.625 C 517.65625 38.785156 515.933594 38.878906 514.210938 38.878906 C 492.25 38.914062 470.277344 38.730469 448.3125 38.992188 C 432.761719 39.1875 417.210938 40.003906 401.65625 40.488281 C 395.03125 40.695312 388.390625 40.695312 381.75 40.84375 C 370.3125 41.117188 358.859375 41.441406 347.417969 41.738281 C 336.632812 42.015625 325.847656 42.4375 315.050781 42.53125 C 299.683594 42.667969 284.300781 42.566406 268.933594 42.566406 C 268.933594 42.644531 268.933594 42.738281 268.933594 42.820312 Z M 268.921875 42.820312 " fill-opacity="1" fill-rule="nonzero"/>
    </g>
</svg>